#define help_icon_width 11
#define help_icon_height 18
static unsigned char help_icon_bits[] = {
   0x00, 0x00, 0xf8, 0x01, 0x8c, 0x03, 0x1e, 0x07, 0x1e, 0x07, 0x0c, 0x07,
   0x00, 0x07, 0x00, 0x03, 0x80, 0x03, 0xc0, 0x01, 0xe0, 0x01, 0xf0, 0x00,
   0x70, 0x00, 0x00, 0x00, 0x70, 0x00, 0xf8, 0x00, 0xf8, 0x00, 0x70, 0x00};
